<svg class="svg-icon" style="width: 1em; height: 1em;vertical-align: middle;fill: currentColor;overflow: hidden;" viewBox="0 0 1024 1024" version="1.1" xmlns="http://www.w3.org/2000/svg">
    <path d="M512 597.333333v341.333334H170.666667a341.333333 341.333333 0 0 1 341.333333-341.333334z m0-42.666666c-141.44 0-256-114.56-256-256s114.56-256 256-256 256 114.56 256 256-114.56 256-256 256z m110.72 247.978666a149.76 149.76 0 0 1 0-69.248l-42.325333-24.448 42.666666-73.898666 42.325334 24.448A149.162667 149.162667 0 0 1 725.333333 624.853333V576h85.333334v48.853333c22.698667 6.741333 43.178667 18.773333 59.946666 34.645334l42.325334-24.448 42.666666 73.898666-42.325333 24.448a149.76 149.76 0 0 1 0 69.205334l42.325333 24.448-42.666666 73.898666-42.325334-24.448a149.162667 149.162667 0 0 1-59.946666 34.645334V960h-85.333334v-48.853333a149.162667 149.162667 0 0 1-59.946666-34.645334l-42.325334 24.448-42.666666-73.898666 42.325333-24.405334zM768 725.333333a42.666667 42.666667 0 1 0 0 85.333334 42.666667 42.666667 0 0 0 0-85.333334z"  />
</svg>